<?xml version="1.0" standalone="no"?>
<!DOCTYPE svg PUBLIC "-//W3C//DTD SVG 20010904//EN"
 "http://www.w3.org/TR/2001/REC-SVG-20010904/DTD/svg10.dtd">
<svg version="1.0" xmlns="http://www.w3.org/2000/svg"
 width="128.000000pt" height="128.000000pt" viewBox="0 0 128.000000 128.000000"
 preserveAspectRatio="xMidYMid meet">
<metadata>
Created by potrace 1.14, written by Peter Selinger 2001-2017
</metadata>
<g transform="translate(0.000000,128.000000) scale(0.100000,-0.100000)"
fill="#000000" stroke="none">
<path d="M465 1270 c6 -9 -8 -14 -27 -11 -5 0 -8 -4 -8 -11 0 -6 -3 -8 -7 -5
-3 4 -13 1 -21 -6 -13 -10 -15 -9 -8 3 6 12 4 11 -6 -1 -7 -9 -19 -14 -27 -11
-8 3 -11 0 -7 -7 7 -10 -8 -15 -42 -14 -7 1 -11 -1 -8 -4 7 -8 -46 -53 -61
-53 -7 0 -13 -7 -13 -17 0 -9 -3 -14 -6 -10 -3 3 -24 -13 -46 -36 -22 -23 -37
-35 -32 -27 4 9 3 12 -2 7 -5 -5 -10 -13 -10 -18 -1 -5 -2 -14 -3 -20 0 -5 -6
-7 -13 -3 -8 5 -9 2 -5 -9 3 -10 2 -17 -3 -17 -6 0 -9 -3 -8 -7 3 -14 -14 -43
-25 -43 -7 0 -7 4 1 12 7 7 12 16 12 22 0 5 -6 1 -14 -10 -8 -11 -11 -23 -6
-28 5 -5 2 -15 -6 -23 -8 -8 -12 -19 -9 -24 4 -5 1 -9 -5 -9 -6 0 -8 -4 -5
-10 3 -5 1 -10 -5 -10 -6 0 -9 -4 -6 -9 8 -13 -4 -42 -14 -36 -5 3 -12 0 -16
-6 -4 -7 -3 -9 4 -5 7 4 10 -1 9 -14 -1 -11 -4 -20 -7 -20 -10 0 -11 -160 0
-161 5 -1 20 -2 33 -2 12 -1 25 -6 29 -11 5 -7 8 -7 8 2 0 6 9 12 20 12 14 0
20 7 20 21 0 13 4 18 12 13 7 -5 8 -3 2 7 -12 20 -5 62 14 77 14 11 14 12 -4
13 -10 0 -13 3 -6 6 6 2 10 9 6 14 -3 5 -1 9 5 9 6 0 8 7 5 15 -4 8 -1 15 6
15 7 0 10 7 6 15 -3 9 1 18 9 21 8 4 15 10 15 16 0 5 -6 6 -12 2 -7 -3 -2 4
12 17 14 13 19 20 11 14 -10 -7 -8 -1 4 17 11 15 27 28 35 28 10 1 11 3 3 7
-20 7 12 34 31 27 9 -3 16 -1 16 6 0 6 -4 8 -10 5 -22 -14 -8 12 22 40 18 17
28 23 23 15 -5 -8 6 0 24 18 19 18 36 31 39 28 3 -3 10 1 16 10 6 8 23 16 37
18 13 1 31 6 38 11 10 6 12 4 7 -6 -4 -8 0 -5 9 6 9 11 18 19 20 18 3 -2 8 -2
13 -2 25 5 48 3 54 -6 4 -6 8 -2 8 8 0 21 28 19 48 -3 12 -13 13 -13 8 3 -3 9
-1 17 4 17 6 0 10 -6 10 -12 0 -9 3 -9 8 -3 9 13 27 13 39 1 5 -5 2 -6 -6 -1
-10 6 -12 4 -7 -4 6 -9 11 -9 22 0 11 9 14 8 14 -2 0 -12 2 -12 9 -1 7 11 9
11 14 -2 4 -9 12 -16 19 -16 9 0 8 3 -2 10 -20 13 -10 12 29 -1 17 -6 31 -15
31 -20 0 -5 5 -9 11 -9 5 0 7 5 4 11 -4 6 2 5 14 -3 12 -7 21 -16 21 -21 0 -4
4 -5 10 -2 6 3 10 1 10 -4 0 -6 7 -11 15 -11 8 0 15 -4 15 -10 0 -5 7 -10 16
-10 8 0 12 -4 9 -10 -3 -5 0 -10 7 -10 18 0 81 -67 74 -79 -4 -5 -1 -13 5 -17
8 -4 9 -3 5 4 -4 7 -5 12 -2 12 11 0 57 -81 51 -90 -4 -6 -3 -10 2 -10 15 0
34 -53 22 -61 -8 -5 -8 -8 0 -13 6 -4 11 -4 11 1 0 4 4 1 9 -6 6 -9 6 -22 0
-33 -5 -10 -6 -18 -2 -17 22 4 25 -3 7 -17 -10 -8 -14 -13 -8 -10 7 3 15 -1
18 -10 4 -10 2 -13 -7 -8 -9 6 -9 4 -1 -7 6 -8 10 -23 9 -35 -1 -15 4 -20 19
-18 12 1 40 3 63 3 l42 1 -2 75 c-1 41 -6 75 -11 75 -5 0 -7 3 -4 6 4 3 0 20
-7 39 -8 18 -11 35 -8 39 4 3 1 6 -5 6 -7 0 -12 5 -12 11 0 5 6 7 13 4 6 -4 3
1 -7 9 -11 9 -17 19 -13 22 3 3 -3 15 -14 27 -10 11 -19 27 -19 34 0 7 -4 13
-10 13 -5 0 -10 7 -10 15 0 8 -6 15 -12 15 -10 0 -10 2 0 9 10 6 8 10 -8 14
-15 4 -21 11 -17 21 4 11 1 13 -11 9 -9 -3 -14 -3 -10 2 8 9 -8 27 -40 44 -12
6 -22 16 -22 22 0 6 5 7 10 4 6 -3 10 -1 10 5 0 6 -6 10 -12 9 -27 -3 -39 1
-32 13 4 6 3 8 -3 5 -13 -8 -55 27 -45 38 4 5 2 5 -5 1 -12 -7 -83 18 -83 29
0 3 5 3 12 -1 7 -4 8 -3 4 5 -6 9 -11 9 -21 1 -11 -9 -18 -7 -31 8 -10 12 -24
18 -37 14 -12 -3 -18 -1 -14 5 3 5 0 10 -8 10 -8 0 -12 -4 -9 -9 3 -4 0 -8 -5
-8 -6 0 -11 4 -11 9 0 11 -248 12 -255 1 -3 -6 -16 -5 -31 0 -17 7 -23 7 -19
0z"/>
<path d="M155 1101 c-3 -5 -2 -12 3 -15 5 -3 9 1 9 9 0 17 -3 19 -12 6z"/>
<path d="M435 1100 c-3 -5 -1 -10 4 -10 6 0 11 5 11 10 0 6 -2 10 -4 10 -3 0
-8 -4 -11 -10z"/>
<path d="M375 1059 c-3 -4 2 -6 10 -5 21 3 28 13 10 13 -9 0 -18 -4 -20 -8z"/>
<path d="M640 1050 c0 -6 -4 -9 -9 -5 -5 3 -12 1 -16 -5 -4 -6 -12 -7 -24 0
-12 6 -22 5 -31 -3 -10 -10 -11 -9 -5 3 7 12 6 13 -7 3 -8 -7 -19 -9 -23 -5
-5 4 -5 1 -1 -5 7 -13 -10 -18 -43 -14 -7 2 -10 -2 -7 -7 5 -9 -39 -27 -56
-24 -5 1 -8 -5 -8 -13 0 -18 -12 -19 -29 -2 -10 10 -11 9 -6 -5 8 -21 -52 -91
-69 -81 -6 3 -8 3 -4 -2 8 -8 -18 -66 -34 -76 -5 -3 -11 -19 -14 -35 -3 -16
-9 -30 -14 -32 -5 -2 -6 -10 -3 -19 5 -12 3 -14 -8 -8 -11 6 -12 5 -2 -5 10
-11 9 -16 -5 -27 -9 -8 -12 -12 -6 -9 7 3 15 -1 18 -10 4 -10 2 -13 -7 -8 -9
6 -9 5 0 -8 7 -8 10 -18 6 -21 -6 -7 8 -9 54 -10 13 0 23 -4 23 -8 0 -5 5 -9
11 -9 5 0 7 5 3 12 -5 7 -2 9 8 5 10 -3 19 3 27 19 8 18 8 23 0 18 -8 -5 -8
-1 0 13 6 11 7 23 4 27 -3 3 1 14 10 24 10 10 14 22 10 25 -12 12 92 130 105
119 2 -2 10 4 16 14 8 11 20 15 30 11 11 -5 15 -3 10 5 -5 7 0 9 14 6 12 -4
20 -2 16 3 -3 5 6 9 20 9 14 0 28 -4 31 -10 3 -5 12 -10 18 -9 9 0 9 2 0 6
-25 9 -13 19 18 15 22 -3 27 -7 18 -13 -8 -5 -9 -9 -4 -9 6 0 16 5 23 12 7 7
12 8 12 2 0 -5 12 -11 28 -12 15 -1 29 -7 30 -12 2 -6 10 -10 18 -10 8 0 17
-7 20 -15 4 -8 10 -13 15 -10 11 8 42 -42 34 -55 -4 -6 -1 -9 5 -8 6 2 19 -8
28 -22 16 -24 16 -25 -4 -10 -12 9 -10 6 4 -8 13 -12 24 -32 26 -45 1 -13 5
-28 9 -34 4 -6 1 -14 -5 -16 -10 -4 -10 -6 0 -6 7 -1 10 -5 7 -11 -7 -11 -3
-12 50 -12 71 0 75 1 68 19 -4 10 -2 14 5 10 7 -5 8 3 0 29 -5 20 -7 45 -5 56
3 11 3 17 0 14 -8 -7 -44 65 -37 75 3 5 0 9 -6 9 -6 0 -9 4 -6 9 3 5 -1 11 -9
15 -8 3 -15 9 -15 14 0 12 -88 102 -99 102 -6 0 -17 10 -25 22 -9 12 -16 17
-16 10 0 -14 -68 15 -88 38 -9 9 -11 10 -7 2 5 -10 2 -13 -11 -10 -11 2 -18 9
-17 14 1 5 -7 10 -17 10 -10 0 -16 -6 -13 -13 7 -18 -2 -16 -21 3 -9 9 -16 11
-16 4z"/>
<path d="M976 1007 c3 -10 9 -15 12 -12 3 3 0 11 -7 18 -10 9 -11 8 -5 -6z"/>
<path d="M315 910 c3 -5 8 -10 11 -10 2 0 4 5 4 10 0 6 -5 10 -11 10 -5 0 -7
-4 -4 -10z"/>
<path d="M615 790 c-3 -5 -3 -10 2 -10 4 -1 -7 -7 -26 -16 -19 -8 -41 -23 -48
-34 -8 -11 -19 -18 -24 -15 -5 3 -6 -2 -2 -11 4 -12 3 -15 -5 -10 -11 6 -14 0
-11 -20 0 -4 -5 -11 -13 -15 -7 -5 -8 -9 -2 -9 7 0 9 -10 6 -25 -2 -14 -9 -22
-16 -19 -6 3 -3 -1 7 -9 9 -8 17 -21 17 -30 0 -9 5 -19 10 -22 6 -4 8 -10 5
-15 -3 -4 2 -11 11 -14 8 -3 12 -11 8 -17 -4 -7 -3 -9 4 -5 6 3 17 0 25 -8 16
-16 18 -91 3 -115 -6 -9 -5 -12 1 -8 6 4 10 -12 9 -38 0 -36 -2 -42 -13 -33
-11 8 -12 7 -7 -7 5 -13 4 -16 -4 -11 -7 4 -10 2 -7 -6 3 -7 -16 -34 -41 -58
-26 -25 -43 -39 -39 -31 5 10 4 12 -4 7 -6 -4 -9 -11 -6 -16 3 -4 -1 -13 -9
-19 -11 -9 -15 -9 -20 1 -4 9 -5 9 -5 -2 2 -30 -1 -41 -10 -35 -5 3 -12 -4
-16 -15 -4 -11 -12 -18 -18 -15 -7 3 -2 -2 11 -11 12 -9 22 -23 22 -30 0 -8 7
-14 15 -14 7 0 18 -8 24 -17 8 -15 13 -16 31 -5 11 7 25 10 30 7 6 -3 7 1 4 9
-4 11 0 16 11 16 9 0 14 3 12 8 -3 4 10 22 29 40 19 19 34 30 35 25 0 -4 4 2
9 15 5 12 17 22 26 22 19 0 68 -40 72 -61 2 -7 8 -18 14 -24 8 -7 8 -5 3 5 -5
8 4 2 18 -13 15 -15 27 -33 27 -38 0 -6 4 -8 9 -4 5 3 12 1 16 -5 3 -5 15 -10
26 -10 11 0 18 4 14 9 -3 5 4 12 15 16 11 3 20 13 20 20 0 8 8 19 18 25 12 8
13 13 4 16 -6 3 -10 9 -7 14 3 5 -4 11 -15 15 -11 3 -20 13 -20 21 0 8 -5 14
-11 14 -5 0 -7 6 -3 13 4 6 4 9 -1 5 -11 -11 -36 12 -28 25 3 5 2 7 -4 4 -13
-8 -56 37 -46 48 5 4 3 5 -4 1 -14 -8 -36 27 -25 39 4 5 2 5 -5 1 -6 -3 -14
-2 -18 4 -3 5 2 10 12 11 15 0 16 1 2 7 -12 6 -15 22 -14 82 2 85 9 107 36
115 10 4 19 11 19 16 0 6 4 8 8 5 7 -4 11 12 12 57 1 9 5 15 11 12 5 -4 5 5
-1 20 -7 19 -7 24 2 19 7 -5 8 -3 2 7 -4 8 -9 19 -10 24 -3 14 -34 72 -34 63
0 -7 -33 18 -66 50 -12 11 -14 10 -14 -5 0 -10 -4 -14 -8 -8 -4 6 -14 10 -22
10 -8 0 -14 6 -12 13 3 15 -4 16 -13 2z"/>
<path d="M553 465 c0 -8 4 -12 9 -9 5 3 6 10 3 15 -9 13 -12 11 -12 -6z"/>
<path d="M776 227 c3 -10 9 -15 12 -12 3 3 0 11 -7 18 -10 9 -11 8 -5 -6z"/>
<path d="M626 128 c3 -5 10 -6 15 -3 13 9 11 12 -6 12 -8 0 -12 -4 -9 -9z"/>
<path d="M669 117 c6 -8 7 -18 3 -22 -4 -5 -1 -5 6 -1 10 6 10 11 1 22 -6 8
-14 14 -16 14 -3 0 0 -6 6 -13z"/>
</g>
</svg>
